# xmcd
#
# Track frame offsets:
#	150
#	8555
#	20386
#	36108
#	49204
#	65488
#	71352
#	86088
#	102503
#	113570
#	128352
#	141884
#	147014
#	151888
#	164220
#	177442
#	193219
#	210886
#	222242
#	236372
#	247529
#	259445
#	271562
#	282874
#	293417
#	302965
#
# Disc length: 4205 seconds
#
# Revision: 0
# Processed by: cddbd v1.5.2PL0 Copyright (c) Steve Scherf et al.
# Submitted via: EZCDAudioConverter 2.0.7.1
#
DISCID=69106b1a
DTITLE=Prairie Orchid - Prairie Orchid ..Pocket Full of Lizards
DYEAR=1900
DGENRE=
TTITLE0=01. Hello
TTITLE1=Magic Pockets
TTITLE2=Song of Whales
TTITLE3=Some Pig
TTITLE4=Earthsong
TTITLE5=Two Hands Hold the Earth
TTITLE6=El Coqui
TTITLE7=Washing Machine
TTITLE8=Don't Call Your Mother
TTITLE9=The Day We Lost the Lizards
TTITLE10=The Old Blue Suit
TTITLE11=Dried Apple Pie
TTITLE12=Watermelon Round
TTITLE13=Wild Wold Party in the Loquat Tree
TTITLE14=Seeing With My Eyes
TTITLE15=Owl Moon
TTITLE16=Waltzing with Bears
TTITLE17=Two Kinds of Seagulls
TTITLE18=There Is a Dinosaur
TTITLE19=Walk a Mile
TTITLE20=Four hands
TTITLE21=The Beautiful Butterfly
TTITLE22=Katydid Waltz
TTITLE23=Peace Round
TTITLE24=1492
TTITLE25=Sobonanna Kusasa
EXTD=
EXTT0=
EXTT1=
EXTT2=
EXTT3=
EXTT4=
EXTT5=
EXTT6=
EXTT7=
EXTT8=
EXTT9=
EXTT10=
EXTT11=
EXTT12=
EXTT13=
EXTT14=
EXTT15=
EXTT16=
EXTT17=
EXTT18=
EXTT19=
EXTT20=
EXTT21=
EXTT22=
EXTT23=
EXTT24=
EXTT25=
PLAYORDER=
